# xmcd
#
# Track frame offsets:
#	150
#	9677
#	21315
#	30175
#	39012
#	49467
#	60735
#	73155
#	81810
#	93747
#	102792
#	112680
#	122575
#	133927
#	145495
#	156327
#	167047
#	177902
#	189195
#	198457
#	207752
#	217222
#	229857
#	242307
#	253157
#	263735
#	272922
#	284197
#	293597
#	303275
#	315652
#
# Disc length: 4322 seconds
#
# Revision: 0
# Processed by: cddbd v1.4PL0 Copyright (c) Steve Scherf et al.
# Submitted via: EasyCDDAExtractor 4.6.0.1
#
DISCID=c810e01f
DTITLE=Johnnie and Jack and the Tennessee Mountain Boys - Johnnie and Jack and the
DTITLE=Tennessee Mountain Boys Vol 6
DYEAR=1900
DGENRE=Country
TTITLE0=What Do You Know About Heartaches
TTITLE1=I Wonder If You Know
TTITLE2=It's Just The Idea (1)
TTITLE3=It's Just The Idea (2)
TTITLE4=Sailor Man
TTITLE5=Wild And Wicked World
TTITLE6=Sweetie Pie
TTITLE7=Happy Lucky Love
TTITLE8=Just Like You
TTITLE9=Dreams Come True
TTITLE10=She Loves Me No More
TTITLE11=Country Music Has Gone To Town
TTITLE12=Talkin' Eyes
TTITLE13=Lonesome Night Wind
TTITLE14=Love Problems
TTITLE15=I'm Always By Myself When I'm Alone
TTITLE16=Smiles And Tears
TTITLE17=Uncle John's Bongos
TTITLE18=Let My Heart Be Broken
TTITLE19=Sweet Baby
TTITLE20=The Moon Is High And So Am I
TTITLE21=Thirty Six, Twenty Two, Thirty Six
TTITLE22=What Do You Think Of Her Now
TTITLE23=Poison Love
TTITLE24=Bye Bye Love
TTITLE25=Slow Poison
TTITLE26=Foolin' Around
TTITLE27=Waterloo
TTITLE28=A Little Bitty Tear
TTITLE29=I Overlooked An Orchid
TTITLE30=You'll Never Get A Better Chance Than This
EXTD=
EXTT0=
EXTT1=
EXTT2=
EXTT3=
EXTT4=
EXTT5=
EXTT6=
EXTT7=
EXTT8=
EXTT9=
EXTT10=
EXTT11=
EXTT12=
EXTT13=
EXTT14=
EXTT15=
EXTT16=
EXTT17=
EXTT18=
EXTT19=
EXTT20=
EXTT21=
EXTT22=
EXTT23=
EXTT24=
EXTT25=
EXTT26=
EXTT27=
EXTT28=
EXTT29=
EXTT30=
PLAYORDER=
